<svg xmlns="http://www.w3.org/2000/svg" width="900" height="600"><g fill="#fff"><path d="M0 0h900v600H0z"/><path d="M520 600l8.7-14.3c8.6-14.4 26-43 4-71.5s-83.4-56.9-95-85.4C426 400.3 464 371.7 461.8 343c-2.1-28.7-44.5-57.3-63.5-86s-14.6-57.3 12-85.8c26.7-28.5 75.7-56.9 86.5-85.4 10.9-28.5-16.5-57.1-30.1-71.5L453 0h447v14.3 71.5 85.4V257v86 85.8 85.4 71.5V600z"/></g><path d="M565 600l-17-14.3c-17-14.4-51-43-46-71.5s49-56.9 49-85.4-44-57.1-63-85.8-13-57.3-10-86 3-57.3 6.2-85.8c3.1-28.5 9.5-56.9 34.3-85.4s68.2-57.1 89.8-71.5L630 0h270v14.3 71.5 85.4V257v86 85.8 85.4 71.5V600z" fill="#ecd8ff"/><path d="M605 600l-.8-14.3c-.9-14.4-2.5-43 6.1-71.5 8.7-28.5 27.7-56.9 21-85.4-6.6-28.5-39-57.1-39.3-85.8s31.3-57.3 37.2-86c5.8-28.7-14.2-57.3-10.7-85.8s30.5-56.9 40-85.4 1.5-57.1-2.5-71.5L652 0h248v14.3 71.5 85.4V257v86 85.8 85.4 71.5V600z" fill="#d7b1ff"/><path d="M637 600l-3.2-14.3c-3.1-14.4-9.5-43-8.5-71.5s9.4-56.9 24.2-85.4 36.2-57.1 34.2-85.8-27.4-57.3-23.7-86 36.3-57.3 38.2-85.8c1.8-28.5-27.2-56.9-42.7-85.4S638 28.7 637 14.3L636 0h264v14.3 71.5 85.4V257v86 85.8 85.4 71.5V600z" fill="#c08bff"/><path d="M771 600l-7.2-14.3c-7.1-14.4-21.5-43-24.6-71.5-3.2-28.5 4.8-56.9 1.3-85.4S722 371.7 729.3 343c7.4-28.7 37-57.3 44-86s-8.6-57.3-19.6-85.8-17.4-56.9-18.2-85.4 3.8-57.1 6.2-71.5L744 0h156v14.3 71.5 85.4V257v86 85.8 85.4 71.5V600z" fill="#a563ff"/><path d="M834 600l-9.2-14.3c-9.1-14.4-27.5-43-31.3-71.5s6.8-56.9 15-85.4 13.8-57.1 16.2-85.8c2.3-28.7 1.3-57.3-.4-86-1.6-28.7-4-57.3-2-85.8s8.4-56.9 1.7-85.4-26.3-57.1-36.2-71.5L778 0h122v14.3 71.5 85.4V257v86 85.8 85.4 71.5V600z" fill="#8338ff"/></svg>
