<svg xmlns="http://www.w3.org/2000/svg" viewBox="0 0 277.47 55.84" fill="#8438ff"><path d="M76.6 33.6v-5.31a10.26 10.26 0 0 0 3.14 1.82c1.13.41 2.27.61 3.42.61.67 0 1.26-.06 1.77-.18.5-.12.92-.29 1.26-.51s.59-.47.76-.76a1.85 1.85 0 0 0 .25-.95 2.07 2.07 0 0 0-.4-1.25c-.27-.37-.63-.7-1.09-1.01s-1-.61-1.64-.9l-2.04-.88c-1.86-.77-3.25-1.72-4.16-2.84s-1.37-2.47-1.37-4.05c0-1.24.25-2.3.75-3.2.5-.89 1.18-1.62 2.03-2.2.86-.58 1.85-1 2.98-1.27s2.32-.41 3.59-.41 2.34.07 3.3.22a13 13 0 0 1 2.65.69v4.96a7.79 7.79 0 0 0-1.3-.73 10.42 10.42 0 0 0-1.45-.52 11.28 11.28 0 0 0-1.49-.31c-.49-.07-.96-.1-1.4-.1-.61 0-1.16.06-1.66.17s-.92.28-1.26.49-.61.46-.8.76c-.19.29-.28.62-.28.99 0 .4.1.76.32 1.07.21.32.51.61.9.9a9.92 9.92 0 0 0 1.41.83l1.88.84c.95.4 1.81.82 2.56 1.27.76.45 1.41.95 1.95 1.52.54.56.96 1.21 1.25 1.93.29.73.43 1.57.43 2.53 0 1.33-.25 2.44-.76 3.35a6.15 6.15 0 0 1-2.05 2.19c-.86.56-1.87.96-3.01 1.2a17.58 17.58 0 0 1-3.63.37c-1.28 0-2.55-.11-3.73-.33s-2.2-.55-3.06-1zm32.53.3c-1.18.69-2.89 1.03-5.13 1.03-2.61 0-4.73-.79-6.34-2.37-1.62-1.58-2.42-3.62-2.42-6.13 0-2.89.87-5.17 2.6-6.83 1.73-1.67 4.05-2.5 6.95-2.5 2 0 3.45.27 4.35.8v4.45c-1.1-.82-2.32-1.23-3.67-1.23-1.51 0-2.7.44-3.58 1.32s-1.32 2.09-1.32 3.64.42 2.69 1.26 3.54c.84.86 2 1.29 3.47 1.29 1.31 0 2.58-.41 3.83-1.23v4.22zm19.75.61h-5.23v-9.66c0-2.49-.91-3.74-2.72-3.74a2.79 2.79 0 0 0-2.26 1.05c-.58.7-.86 1.58-.86 2.66v9.69h-5.25V9.34h5.25v10.69h.07c1.28-1.96 3.03-2.94 5.23-2.94 3.85 0 5.78 2.32 5.78 6.97V34.5zm12.25.42c-2.83 0-5.06-.79-6.68-2.38s-2.43-3.74-2.43-6.47.84-5.01 2.52-6.6 3.96-2.38 6.82-2.38 5.04.79 6.64 2.38 2.41 3.69 2.41 6.3c0 2.82-.83 5.05-2.48 6.69-1.66 1.64-3.92 2.46-6.8 2.46zm.13-13.81c-1.24 0-2.2.43-2.89 1.28s-1.03 2.06-1.03 3.62c0 3.27 1.32 4.9 3.95 4.9s3.77-1.68 3.77-5.03c0-3.18-1.27-4.76-3.8-4.76zm17.8 13.39h-5.25V9.34h5.25v25.17zm18.56 0h-4.96v-2.44h-.07c-1.14 1.9-2.83 2.86-5.06 2.86-1.65 0-2.95-.47-3.89-1.4s-1.42-2.18-1.42-3.74c0-3.3 1.95-5.2 5.86-5.71l4.62-.61c0-1.86-1.01-2.79-3.02-2.79s-3.95.6-5.78 1.81v-3.95c.73-.38 1.73-.71 3-1s2.42-.43 3.46-.43c4.85 0 7.27 2.42 7.27 7.25v10.16zm-4.93-6.91v-1.15l-3.09.4c-1.7.22-2.56.99-2.56 2.31 0 .6.21 1.09.62 1.47s.98.57 1.68.57c.99 0 1.79-.34 2.41-1.02s.93-1.54.93-2.58zm20.17-5.36c-.63-.34-1.37-.51-2.21-.51-1.14 0-2.03.42-2.67 1.25-.64.84-.96 1.97-.96 3.41v8.12h-5.25v-17h5.25v3.15h.07c.83-2.3 2.32-3.45 4.48-3.45.55 0 .99.07 1.29.2v4.83zm1.33 11.82v-4.25c.86.52 1.72.91 2.58 1.16s1.67.38 2.43.38c.93 0 1.66-.13 2.2-.38s.81-.64.81-1.16a1.06 1.06 0 0 0-.37-.83c-.24-.22-.56-.41-.94-.58s-.8-.32-1.25-.45l-1.31-.45c-.67-.25-1.27-.53-1.79-.82-.51-.29-.95-.63-1.29-1.02-.35-.39-.61-.84-.8-1.34-.18-.51-.27-1.11-.27-1.81 0-.95.21-1.77.62-2.46s.97-1.25 1.66-1.69 1.48-.76 2.37-.96 1.82-.31 2.78-.31a16.26 16.26 0 0 1 2.29.17c.77.11 1.54.29 2.29.51v4.05c-.66-.39-1.38-.68-2.13-.87-.76-.19-1.5-.29-2.23-.29-.34 0-.67.03-.97.09a3.01 3.01 0 0 0-.8.27c-.23.12-.42.27-.55.45s-.2.39-.2.62c0 .31.1.58.3.8s.46.41.78.57.68.3 1.07.43l1.17.39a13.95 13.95 0 0 1 1.89.8 6.32 6.32 0 0 1 1.45 1.01 4.12 4.12 0 0 1 .93 1.36c.22.52.32 1.14.32 1.86 0 1.01-.22 1.87-.66 2.58s-1.02 1.29-1.74 1.74c-.73.45-1.56.77-2.51.98a14.26 14.26 0 0 1-2.95.31c-1.87 0-3.6-.29-5.2-.86zm24.17.87c-2.83 0-5.06-.79-6.68-2.38s-2.43-3.74-2.43-6.47.84-5.01 2.52-6.6 3.96-2.38 6.82-2.38 5.04.79 6.64 2.38 2.41 3.69 2.41 6.3c0 2.82-.83 5.05-2.48 6.69s-3.92 2.46-6.8 2.46zm.13-13.81c-1.24 0-2.2.43-2.89 1.28s-1.03 2.06-1.03 3.62c0 3.27 1.32 4.9 3.95 4.9s3.77-1.68 3.77-5.03c0-3.18-1.27-4.76-3.8-4.76zm39.55 13.39h-5.23v-9.69c0-2.47-.91-3.7-2.72-3.7-.86 0-1.57.37-2.11 1.11s-.81 1.67-.81 2.77v9.51h-5.25v-9.79c0-2.4-.89-3.6-2.67-3.6-.9 0-1.61.35-2.15 1.06s-.81 1.67-.81 2.89v9.45h-5.25V17.51h5.25v2.66h.07c.54-.91 1.3-1.65 2.28-2.22s2.05-.85 3.21-.85c2.4 0 4.04 1.06 4.93 3.17 1.29-2.11 3.2-3.17 5.71-3.17 3.7 0 5.54 2.28 5.54 6.84v10.57zm19.43-7h-11.09c.18 2.47 1.73 3.7 4.67 3.7 1.87 0 3.51-.44 4.93-1.33v3.79c-1.57.84-3.61 1.26-6.13 1.26-2.75 0-4.88-.76-6.39-2.28s-2.27-3.64-2.27-6.37.82-5.06 2.46-6.71 3.65-2.47 6.04-2.47 4.4.74 5.75 2.21c1.36 1.47 2.03 3.47 2.03 5.99v2.21zm-4.86-3.22c0-2.43-.99-3.65-2.96-3.65-.84 0-1.57.35-2.18 1.05s-.99 1.57-1.12 2.61h6.26zM30.98.27a7.76 7.76 0 0 0-2.44 1.13L1.15 20.47c-.93.65-1.35 1.81-1.05 2.9s1.23 1.88 2.36 1.99l6.86.58a18.38 18.38 0 0 0-.22 10.3l.81 3.04c.82 3.07.5 6.55-.07 9.38-.33 1.59-.76 3.19-1.34 4.72a1.79 1.79 0 0 0 1.7 2.47l7.38-.12c.49 0 .95-.22 1.28-.58s.5-.84.47-1.33c-.31-4.88-1.89-8.9-3.38-11.69-.76-1.44-1.64-2.89-2.68-4.15l-.71-2.66c-.87-3.26-.6-6.64.66-9.62.95-2.05 2.39-3.88 4.28-5.28L32.68 9.2a1.8 1.8 0 0 1 2.5.37 1.79 1.79 0 0 1-.37 2.5L19.63 23.29a10.37 10.37 0 0 0-2.86 3.27l18.92 1.6c.9.07 1.81 0 2.68-.24a8.1 8.1 0 0 0 2.44-1.13L68.22 7.74c.93-.64 1.35-1.81 1.05-2.9s-1.23-1.88-2.36-1.99L33.66.03c-.9-.07-1.81 0-2.68.24zm-9.83 46.2c1.02 3.82 11.38 5.29 22.84 2.22s19.69-9.53 18.67-13.34l-5.87-15.27-13.88 9.67a11.44 11.44 0 0 1-3.56 1.65 11.42 11.42 0 0 1-3.9.35l-16.86-1.44 2.56 16.16z"/></svg>
