<?xml version="1.0" encoding="UTF-8"?>
<svg id="Layer_1" data-name="Layer 1" xmlns="http://www.w3.org/2000/svg" viewBox="0 0 277.47 55.84">
  <defs>
    <style>
      .cls-1 {
        fill: #8438ff;
      }
    </style>
  </defs>
  <g>
    <path class="cls-1" d="M76.6,33.6v-5.31c.96,.81,2.01,1.41,3.14,1.82s2.27,.61,3.42,.61c.67,0,1.26-.06,1.77-.18,.5-.12,.92-.29,1.26-.51,.34-.22,.59-.47,.76-.76s.25-.61,.25-.95c0-.46-.13-.88-.4-1.25s-.63-.7-1.09-1.01c-.46-.31-1-.61-1.64-.9-.63-.29-1.31-.58-2.04-.88-1.86-.77-3.25-1.72-4.16-2.84-.91-1.12-1.37-2.47-1.37-4.05,0-1.24,.25-2.3,.75-3.2,.5-.89,1.18-1.62,2.03-2.2,.86-.58,1.85-1,2.98-1.27,1.13-.27,2.32-.41,3.59-.41s2.34,.07,3.3,.22c.96,.15,1.84,.38,2.65,.69v4.96c-.4-.28-.83-.52-1.3-.73-.47-.21-.95-.38-1.45-.52-.5-.14-.99-.24-1.49-.31-.49-.07-.96-.1-1.4-.1-.61,0-1.16,.06-1.66,.17s-.92,.28-1.26,.49c-.34,.21-.61,.46-.8,.76-.19,.29-.28,.62-.28,.99,0,.4,.1,.76,.32,1.07,.21,.32,.51,.61,.9,.9,.39,.28,.86,.56,1.41,.83,.55,.27,1.18,.55,1.88,.84,.95,.4,1.81,.82,2.56,1.27,.76,.45,1.41,.95,1.95,1.52,.54,.56,.96,1.21,1.25,1.93,.29,.73,.43,1.57,.43,2.53,0,1.33-.25,2.44-.76,3.35-.5,.9-1.19,1.63-2.05,2.19s-1.87,.96-3.01,1.2-2.35,.37-3.63,.37-2.55-.11-3.73-.33c-1.18-.22-2.2-.55-3.06-1Z"/>
    <path class="cls-1" d="M109.13,33.9c-1.18,.69-2.89,1.03-5.13,1.03-2.61,0-4.73-.79-6.34-2.37-1.62-1.58-2.42-3.62-2.42-6.13,0-2.89,.87-5.17,2.6-6.83,1.73-1.67,4.05-2.5,6.95-2.5,2,0,3.45,.27,4.35,.8v4.45c-1.1-.82-2.32-1.23-3.67-1.23-1.51,0-2.7,.44-3.58,1.32s-1.32,2.09-1.32,3.64,.42,2.69,1.26,3.54c.84,.86,2,1.29,3.47,1.29,1.31,0,2.58-.41,3.83-1.23v4.22Z"/>
    <path class="cls-1" d="M128.88,34.51h-5.23v-9.66c0-2.49-.91-3.74-2.72-3.74-.93,0-1.68,.35-2.26,1.05-.58,.7-.86,1.58-.86,2.66v9.69h-5.25V9.34h5.25v10.69h.07c1.28-1.96,3.03-2.94,5.23-2.94,3.85,0,5.78,2.32,5.78,6.97v10.44Z"/>
    <path class="cls-1" d="M141.13,34.93c-2.83,0-5.06-.79-6.68-2.38-1.62-1.59-2.43-3.74-2.43-6.47s.84-5.01,2.52-6.6c1.68-1.59,3.96-2.38,6.82-2.38s5.04,.79,6.64,2.38c1.6,1.59,2.41,3.69,2.41,6.3,0,2.82-.83,5.05-2.48,6.69-1.66,1.64-3.92,2.46-6.8,2.46Zm.13-13.81c-1.24,0-2.2,.43-2.89,1.28-.69,.85-1.03,2.06-1.03,3.62,0,3.27,1.32,4.9,3.95,4.9s3.77-1.68,3.77-5.03c0-3.18-1.27-4.76-3.8-4.76Z"/>
    <path class="cls-1" d="M159.06,34.51h-5.25V9.34h5.25v25.17Z"/>
    <path class="cls-1" d="M177.62,34.51h-4.96v-2.44h-.07c-1.14,1.9-2.83,2.86-5.06,2.86-1.65,0-2.95-.47-3.89-1.4s-1.42-2.18-1.42-3.74c0-3.3,1.95-5.2,5.86-5.71l4.62-.61c0-1.86-1.01-2.79-3.02-2.79s-3.95,.6-5.78,1.81v-3.95c.73-.38,1.73-.71,3-1,1.27-.29,2.42-.43,3.46-.43,4.85,0,7.27,2.42,7.27,7.25v10.16Zm-4.93-6.91v-1.15l-3.09,.4c-1.7,.22-2.56,.99-2.56,2.31,0,.6,.21,1.09,.62,1.47,.41,.38,.98,.57,1.68,.57,.99,0,1.79-.34,2.41-1.02s.93-1.54,.93-2.58Z"/>
    <path class="cls-1" d="M192.86,22.24c-.63-.34-1.37-.51-2.21-.51-1.14,0-2.03,.42-2.67,1.25-.64,.84-.96,1.97-.96,3.41v8.12h-5.25V17.51h5.25v3.15h.07c.83-2.3,2.32-3.45,4.48-3.45,.55,0,.99,.07,1.29,.2v4.83Z"/>
    <path class="cls-1" d="M194.19,34.06v-4.25c.86,.52,1.72,.91,2.58,1.16,.86,.25,1.67,.38,2.43,.38,.93,0,1.66-.13,2.2-.38,.54-.25,.81-.64,.81-1.16,0-.33-.12-.61-.37-.83-.24-.22-.56-.41-.94-.58-.38-.17-.8-.32-1.25-.45s-.89-.28-1.31-.45c-.67-.25-1.27-.53-1.79-.82-.51-.29-.95-.63-1.29-1.02-.35-.39-.61-.84-.8-1.34-.18-.51-.27-1.11-.27-1.81,0-.95,.21-1.77,.62-2.46,.41-.69,.97-1.25,1.66-1.69,.69-.44,1.48-.76,2.37-.96,.89-.2,1.82-.31,2.78-.31,.75,0,1.52,.06,2.29,.17s1.54,.29,2.29,.51v4.05c-.66-.39-1.38-.68-2.13-.87-.76-.19-1.5-.29-2.23-.29-.34,0-.67,.03-.97,.09-.3,.06-.57,.15-.8,.27s-.42,.27-.55,.45-.2,.39-.2,.62c0,.31,.1,.58,.3,.8,.2,.22,.46,.41,.78,.57,.32,.16,.68,.3,1.07,.43,.39,.13,.78,.26,1.17,.39,.7,.24,1.33,.51,1.89,.8,.56,.29,1.05,.63,1.45,1.01,.4,.39,.71,.84,.93,1.36,.22,.52,.32,1.14,.32,1.86,0,1.01-.22,1.87-.66,2.58-.44,.71-1.02,1.29-1.74,1.74-.73,.45-1.56,.77-2.51,.98-.95,.2-1.93,.31-2.95,.31-1.87,0-3.6-.29-5.2-.86Z"/>
    <path class="cls-1" d="M218.36,34.93c-2.83,0-5.06-.79-6.68-2.38-1.62-1.59-2.43-3.74-2.43-6.47s.84-5.01,2.52-6.6c1.68-1.59,3.96-2.38,6.82-2.38s5.04,.79,6.64,2.38c1.6,1.59,2.41,3.69,2.41,6.3,0,2.82-.83,5.05-2.48,6.69-1.65,1.64-3.92,2.46-6.8,2.46Zm.13-13.81c-1.24,0-2.2,.43-2.89,1.28-.69,.85-1.03,2.06-1.03,3.62,0,3.27,1.32,4.9,3.95,4.9s3.77-1.68,3.77-5.03c0-3.18-1.27-4.76-3.8-4.76Z"/>
    <path class="cls-1" d="M258.04,34.51h-5.23v-9.69c0-2.47-.91-3.7-2.72-3.7-.86,0-1.57,.37-2.11,1.11-.54,.74-.81,1.67-.81,2.77v9.51h-5.25v-9.79c0-2.4-.89-3.6-2.67-3.6-.9,0-1.61,.35-2.15,1.06-.54,.71-.81,1.67-.81,2.89v9.45h-5.25V17.51h5.25v2.66h.07c.54-.91,1.3-1.65,2.28-2.22,.98-.57,2.05-.85,3.21-.85,2.4,0,4.04,1.06,4.93,3.17,1.29-2.11,3.2-3.17,5.71-3.17,3.7,0,5.54,2.28,5.54,6.84v10.57Z"/>
    <path class="cls-1" d="M277.47,27.51h-11.09c.18,2.47,1.73,3.7,4.67,3.7,1.87,0,3.51-.44,4.93-1.33v3.79c-1.57,.84-3.61,1.26-6.13,1.26-2.75,0-4.88-.76-6.39-2.28s-2.27-3.64-2.27-6.37,.82-5.06,2.46-6.71c1.64-1.65,3.65-2.47,6.04-2.47s4.4,.74,5.75,2.21c1.36,1.47,2.03,3.47,2.03,5.99v2.21Zm-4.86-3.22c0-2.43-.99-3.65-2.96-3.65-.84,0-1.57,.35-2.18,1.05-.61,.7-.99,1.57-1.12,2.61h6.26Z"/>
  </g>
  <path class="cls-1" d="M30.98,.27c-.88,.23-1.7,.62-2.44,1.13L1.15,20.47c-.93,.65-1.35,1.81-1.05,2.9s1.23,1.88,2.36,1.99l6.86,.58c-1.03,3.26-1.15,6.83-.22,10.3l.81,3.04c.82,3.07,.5,6.55-.07,9.38-.33,1.59-.76,3.19-1.34,4.72-.22,.56-.16,1.19,.19,1.69,.34,.5,.91,.79,1.51,.78l7.38-.12c.49,0,.95-.22,1.28-.58s.5-.84,.47-1.33c-.31-4.88-1.89-8.9-3.38-11.69-.76-1.44-1.64-2.89-2.68-4.15l-.71-2.66c-.87-3.26-.6-6.64,.66-9.62,.95-2.05,2.39-3.88,4.28-5.28l15.18-11.22c.79-.58,1.91-.42,2.5,.37s.42,1.91-.37,2.5l-15.18,11.22c-1.2,.89-2.16,2.02-2.86,3.27l18.92,1.6c.9,.07,1.81,0,2.68-.24s1.7-.62,2.44-1.13L68.22,7.74c.93-.64,1.35-1.81,1.05-2.9s-1.23-1.88-2.36-1.99L33.66,.03c-.9-.07-1.81,0-2.68,.24Zm-9.83,46.2c1.02,3.82,11.38,5.29,22.84,2.22s19.69-9.53,18.67-13.34l-5.87-15.27-13.88,9.67c-1.08,.75-2.29,1.31-3.56,1.65s-2.6,.46-3.9,.35l-16.86-1.44,2.56,16.16Z"/>
</svg>